<?xml version="1.0" encoding="UTF-8" standalone="no"?>
<!-- Uploaded to: SVG Repo, www.svgrepo.com, Generator: SVG Repo Mixer Tools -->

<svg
   xmlns:dc="http://purl.org/dc/elements/1.1/"
   xmlns:cc="http://creativecommons.org/ns#"
   xmlns:rdf="http://www.w3.org/1999/02/22-rdf-syntax-ns#"
   xmlns:svg="http://www.w3.org/2000/svg"
   xmlns="http://www.w3.org/2000/svg"
   xmlns:sodipodi="http://sodipodi.sourceforge.net/DTD/sodipodi-0.dtd"
   xmlns:inkscape="http://www.inkscape.org/namespaces/inkscape"
   fill="#000000"
   height="800px"
   width="800px"
   version="1.1"
   id="Capa_1"
   viewBox="0 0 406.833 406.833"
   xml:space="preserve"
   sodipodi:docname="pharmacy-svgrepo-com.svg"
   inkscape:version="0.92.5 (2060ec1f9f, 2020-04-08)"><metadata
   id="metadata9"><rdf:RDF><cc:Work
       rdf:about=""><dc:format>image/svg+xml</dc:format><dc:type
         rdf:resource="http://purl.org/dc/dcmitype/StillImage" /></cc:Work></rdf:RDF></metadata><defs
   id="defs7" /><sodipodi:namedview
   pagecolor="#ffffff"
   bordercolor="#666666"
   borderopacity="1"
   objecttolerance="10"
   gridtolerance="10"
   guidetolerance="10"
   inkscape:pageopacity="0"
   inkscape:pageshadow="2"
   inkscape:window-width="790"
   inkscape:window-height="480"
   id="namedview5"
   showgrid="false"
   inkscape:zoom="0.295"
   inkscape:cx="400"
   inkscape:cy="400"
   inkscape:window-x="475"
   inkscape:window-y="139"
   inkscape:window-maximized="0"
   inkscape:current-layer="Capa_1" />
<path
   d="M 224.01265,188.36128 H 206.3386 v -17.67324 c 0,-2.4743 -2.00614,-4.48 -4.48,-4.48 h -21.155 c -2.47386,0 -4.48,2.0057 -4.48,4.48 v 17.67324 h -17.67405 c -2.47386,0 -4.48,2.0057 -4.48,4.48 v 21.15636 c 0,2.4743 2.00614,4.48 4.48,4.48 h 17.67405 v 17.6736 c 0,2.4743 2.00614,4.48 4.48,4.48 h 21.155 c 2.47386,0 4.48,-2.0057 4.48,-4.48 v -17.6736 h 17.67405 c 2.47386,0 4.48,-2.0057 4.48,-4.48 v -21.15636 c 0,-2.4743 -2.00569,-4.48 -4.48,-4.48 z m -4.48,21.15636 H 201.8586 c -2.47385,0 -4.48,2.00569 -4.48,4.48 v 17.6736 h -12.195 v -17.6736 c 0,-2.47431 -2.00615,-4.48 -4.48,-4.48 h -17.67405 v -12.19636 h 17.67405 c 2.47385,0 4.48,-2.00569 4.48,-4.48 v -17.67315 h 12.195 v 17.67315 c 0,2.47431 2.00615,4.48 4.48,4.48 h 17.67405 z m 65.48869,-34.285 c 3.6e-4,-0.0269 8e-4,-0.0627 8e-4,-0.0896 0,-0.0269 -5.4e-4,-0.0627 -8e-4,-0.0896 v -58.28793 c 0,-2.47431 -2.00623,-4.48 -4.48,-4.48 -2.4739,0 -4.48,2.00569 -4.48,4.48 v 53.89565 h -15.31 v -20.00888 c 0,-9.21228 -7.49468,-16.70682 -16.70646,-16.70682 H 138.51812 c -9.21222,0 -16.70726,7.4945 -16.70726,16.70682 v 105.52724 c 0,9.21223 7.49459,16.70682 16.70726,16.70682 h 105.52676 c 9.21232,0 16.70646,-7.49459 16.70646,-16.70682 v -20.00956 h 15.31 v 53.89673 c 0,2.47431 2.0061,4.48 4.48,4.48 2.47377,0 4.48,-2.00569 4.48,-4.48 v -58.28847 c 3.6e-4,-0.0269 8e-4,-0.0627 8e-4,-0.0896 0,-0.0269 -5.4e-4,-0.0627 -8e-4,-0.0896 z m -33.23,80.95047 c 0,4.27168 -3.47522,7.74681 -7.74646,7.74681 H 138.51812 c -4.27168,0 -7.74726,-3.47513 -7.74726,-7.74681 v -105.5273 c 0,-4.27177 3.47558,-7.74681 7.74726,-7.74681 h 105.52676 c 4.27124,0 7.74646,3.47504 7.74646,7.74681 z m 24.27,-28.96956 h -15.31 v -47.5888 h 15.31 z"
   id="path2"
   inkscape:connector-curvature="0"
   style="stroke-width:0.44800001" />
</svg>